<?xml version="1.0" encoding="utf-8"?>
<!-- Generator: Adobe Illustrator 15.1.0, SVG Export Plug-In . SVG Version: 6.00 Build 0)  -->
<!DOCTYPE svg PUBLIC "-//W3C//DTD SVG 1.1//EN" "http://www.w3.org/Graphics/SVG/1.1/DTD/svg11.dtd">
<svg version="1.1" id="Layer_1" xmlns="http://www.w3.org/2000/svg" xmlns:xlink="http://www.w3.org/1999/xlink" x="0px" y="0px"
	 width="100px" height="100.13px" viewBox="0 0 100 100.13" enable-background="new 0 0 100 100.13" xml:space="preserve">
<path fill="#010101" d="M0,12.793c0,1.671,0.629,3.136,1.888,4.395l33.073,33.203L1.888,82.943C0.629,84.202,0,85.667,0,87.337
	s0.629,3.136,1.888,4.395l6.51,6.51c1.259,1.259,2.734,1.889,4.427,1.889c1.692,0,3.146-0.63,4.362-1.889L50,65.429l32.812,32.812
	c1.259,1.259,2.724,1.889,4.395,1.889s3.136-0.63,4.395-1.889l6.511-6.51c1.259-1.259,1.888-2.734,1.888-4.428
	c0-1.692-0.629-3.146-1.888-4.361L65.039,49.739l33.073-32.552c1.259-1.259,1.888-2.702,1.888-4.33s-0.629-3.071-1.888-4.33
	l-6.511-6.641C90.343,0.629,88.867,0,87.175,0c-1.693,0-3.147,0.629-4.362,1.888L50,34.766L17.057,1.888
	C15.799,0.629,14.355,0,12.728,0C11.1,0,9.657,0.629,8.398,1.888l-6.51,6.511C0.629,9.657,0,11.122,0,12.793z"/>
</svg>
